<?xml version="1.0" encoding="utf-8"?>
<!-- Svg Vector Icons : http://www.onlinewebfonts.com/icon -->
<!DOCTYPE svg PUBLIC "-//W3C//DTD SVG 1.1//EN" "http://www.w3.org/Graphics/SVG/1.1/DTD/svg11.dtd">
<svg version="1.1" xmlns="http://www.w3.org/2000/svg" xmlns:xlink="http://www.w3.org/1999/xlink" x="0px" y="0px" viewBox="0 0 1000 1000" enable-background="new 0 0 1000 1000" xml:space="preserve">
<metadata> Svg Vector Icons : http://www.onlinewebfonts.com/icon </metadata>
<g><path d="M961.2,241.4H38.8c-15.9,0-28.8-13-28.8-28.9s12.9-28.9,28.8-28.9h922.4c15.9,0,28.8,13,28.8,28.9S977.1,241.4,961.2,241.4z M759.4,990H211.8c-47.7,0-86.1-38.8-86.1-86.5V327.1c0-15.9,13-28.8,28.9-28.8c15.9,0,28.9,12.9,28.9,28.8v576.5c0,15.9,12.4,28.6,28.3,28.6h547.6c15.9,0,28.2-12.7,28.2-28.6V327.1c0-15.9,13-28.8,28.9-28.8c15.9,0,28.9,12.9,28.9,28.8v576.5C845.4,951.2,807.1,990,759.4,990z M730.5,211.8c-15.9,0-28.1-12.9-28.1-28.8V96.5c0-15.9-13.6-28.6-29.5-28.6H298.2c-15.9,0-29.6,12.7-29.6,28.6V183c0,15.9-12.2,28.8-28.1,28.8s-28.1-12.9-28.1-28.8V96.5c0-47.7,38.1-86.5,85.8-86.5h374.7c47.7,0,85.7,38.8,85.7,86.5V183C758.7,198.9,746.5,211.8,730.5,211.8z M384.3,845.9c-15.9,0-28.9-12.9-28.9-28.8V442.4c0-15.9,13-28.8,28.9-28.8c15.9,0,28.9,12.9,28.9,28.8v374.7C413.3,833,400.3,845.9,384.3,845.9z M586.8,845.9c-15.9,0-28.9-12.9-28.9-28.8V442.4c0-15.9,13-28.8,28.9-28.8s28.9,12.9,28.9,28.8v374.7C615.7,833,602.7,845.9,586.8,845.9z"/></g>
</svg>